<svg xmlns="http://www.w3.org/2000/svg" xmlns:xlink="http://www.w3.org/1999/xlink" width="16"
    height="16">
    <defs>
        <path id="A"
            d="M12 11.667V13c0 .4-.267.667-.667.667s-.666-.267-.666-.667v-1.333a1.96 1.96 0 0 0-2-2H3.333a1.96 1.96 0 0 0-2 2V13c0 .4-.266.667-.666.667S0 13.4 0 13v-1.333a3.3 3.3 0 0 1 3.333-3.334h5.334A3.3 3.3 0 0 1 12 11.667zm-9.333-8A3.3 3.3 0 0 1 6 .333a3.3 3.3 0 0 1 3.333 3.334A3.3 3.3 0 0 1 6 7a3.3 3.3 0 0 1-3.333-3.333zm1.333 0a1.96 1.96 0 0 0 2 2 1.96 1.96 0 0 0 2-2 1.96 1.96 0 0 0-2-2 1.96 1.96 0 0 0-2 2z" />
    </defs>
    <g fill-rule="evenodd" transform="translate(2 1)">
        <mask id="B" fill="#fff">
            <use xlink:href="#A" />
        </mask>
        <use fill="#000" xlink:href="#A" />
        <g fill="#101217" mask="url(#B)">
            <path d="M-2-1h16v16H-2z" />
        </g>
    </g>
</svg>