<svg xmlns="http://www.w3.org/2000/svg" xmlns:xlink="http://www.w3.org/1999/xlink" width="20" height="20" viewBox="0 0 20 20">
    <defs>
        <path id="prefix__a" d="M15.06 14.833V16.5c0 .5-.335.833-.837.833s-.837-.333-.837-.833v-1.667c0-1.416-1.087-2.5-2.51-2.5H4.184c-1.422 0-2.51 1.084-2.51 2.5V16.5c0 .5-.334.833-.836.833S0 17 0 16.5v-1.667c0-2.333 1.84-4.166 4.183-4.166h6.694c2.342 0 4.183 1.833 4.183 4.166zm-11.713-10C3.347 2.5 5.187.667 7.53.667s4.183 1.833 4.183 4.166C11.713 7.167 9.873 9 7.53 9S3.347 7.167 3.347 4.833zm1.673 0c0 1.417 1.088 2.5 2.51 2.5 1.422 0 2.51-1.083 2.51-2.5 0-1.416-1.088-2.5-2.51-2.5-1.422 0-2.51 1.084-2.51 2.5zm11.88 6c-.418-.083-.92.167-1.004.584-.083.416.168.916.586 1 1.088.25 1.84 1.25 1.84 2.416V16.5c0 .5.335.833.837.833s.837-.333.837-.833v-1.667c.084-1.916-1.171-3.583-3.096-4zm-3.346-10c-.419-.166-.837.084-1.004.584-.084.416.167.916.585 1 1.34.333 2.176 1.666 1.841 3.083-.25.917-.92 1.583-1.84 1.833-.419.084-.754.584-.586 1 .083.417.418.667.836.667h.168c1.506-.417 2.677-1.5 3.012-3 .585-2.333-.753-4.667-3.012-5.167z"/>
    </defs>
    <g fill="none" fill-rule="evenodd" transform="translate(0 1)">
        <mask id="prefix__b" fill="#fff">
            <use xlink:href="#prefix__a"/>
        </mask>
        <use fill="#000" fill-rule="nonzero" xlink:href="#prefix__a"/>
        <g fill="#75767C" mask="url(#prefix__b)">
            <path d="M0 0H20V20H0z" transform="translate(0 -1)"/>
        </g>
    </g>
</svg>
