<svg xmlns="http://www.w3.org/2000/svg" width="20" height="18" viewBox="0 0 20 18">
    <path fill="#FFF" fill-rule="nonzero"
        d="M1.053 0A1.06 1.06 0 0 0 0 1.067c0 .589.471 1.066 1.053 1.066h17.894A1.06 1.06 0 0 0 20 1.067 1.06 1.06 0 0 0 18.947 0H1.053zm0 7.733A1.06 1.06 0 0 0 0 8.8c0 .59.471 1.067 1.053 1.067h17.894A1.06 1.06 0 0 0 20 8.8a1.06 1.06 0 0 0-1.053-1.067H1.053zm0 7.734A1.06 1.06 0 0 0 0 16.533c0 .59.471 1.067 1.053 1.067h17.894A1.06 1.06 0 0 0 20 16.533a1.06 1.06 0 0 0-1.053-1.066H1.053z" />
</svg>
