<svg xmlns="http://www.w3.org/2000/svg" width="40" height="40" viewBox="0 0 40 40">
    <g fill="none" fill-rule="evenodd">
        <circle cx="20" cy="20" r="20" fill="#F7F7FC"/>
        <path fill="#5E687A" d="M20 13l.136.006a1.392 1.392 0 0 1 1.264 1.388v4.205l4.206.001c.729 0 1.32.555 1.388 1.265L27 20l-.006.136a1.392 1.392 0 0 1-1.388 1.264H21.4v4.206c0 .729-.555 1.32-1.265 1.388L20 27l-.136-.006a1.392 1.392 0 0 1-1.264-1.388V21.4h-4.206c-.729 0-1.32-.555-1.388-1.265L13 20l.006-.136a1.392 1.392 0 0 1 1.388-1.264l4.206-.001v-4.205c0-.729.555-1.32 1.265-1.388L20 13z"/>
    </g>
</svg>
