<svg height="40" viewBox="0 0 240.53 240.53" width="40" xmlns="http://www.w3.org/2000/svg">
    <g fill-opacity="0.54">
        <path
            d="M98.22,36.94a61.27,61.27,0,1,0,61.27,61.27A61.27,61.27,0,0,0,98.22,36.94Zm0,102.54a41.27,41.27,0,1,1,41.27-41.27A41.32,41.32,0,0,1,98.22,139.48Z" />

        <path
            d="M200.14,200.12a11.61,11.61,0,0,1-16.54,0l-43-42.93a74.27,74.27,0,0,0,16.6-16.6l42.94,43A11.69,11.69,0,0,1,200.14,200.12Z" />

        <path
            d="M118.27,110.68a5,5,0,0,1,0,7.07,5,5,0,0,1-7.07,0L98.06,104.61,84.92,117.75a5,5,0,1,1-7.07-7.07L91,97.54,77.85,84.39a5,5,0,1,1,7.07-7.07L98.06,90.46,111.2,77.32a5,5,0,1,1,7.07,7.07L105.13,97.54Z" />
    </g>
</svg>