<svg width="20" height="20" xmlns="http://www.w3.org/2000/svg">
    <g fill="none" fill-rule="evenodd">
        <path d="M-2-2h24v24H-2z" />
        <g opacity=".54" fill="#000">
            <path
                d="M15.6522 6.087C18.0534 6.087 20 8.0335 20 10.4348c0 2.338-1.8455 4.245-4.1592 4.3438l-.1886.004h-.8696a.8696.8696 0 01-.1014-1.7333l.1014-.0058h.8696c1.4407 0 2.6087-1.168 2.6087-2.6087 0-1.3893-1.086-2.525-2.4554-2.6043l-.1533-.0044h-.8696a.8696.8696 0 01-.1014-1.7333l.1014-.0058h.8696z" />
            <path
                d="M14.7826 6.087H.8696A.8696.8696 0 000 6.9565v7.8261c0 2.4012 1.9466 4.3478 4.3478 4.3478h6.9565c2.4013 0 4.3479-1.9466 4.3479-4.3478v-7.826a.8696.8696 0 00-.8696-.8696zM1.7391 7.826h12.174v6.9566c0 1.4408-1.168 2.6087-2.6088 2.6087H4.3478l-.1533-.0044c-1.3694-.0794-2.4554-1.215-2.4554-2.6043V7.8261zM4.3478 0c.446 0 .8135.3357.8637.7682l.0059.1014v2.6087a.8696.8696 0 01-1.7333.1014l-.0058-.1014V.8696A.8696.8696 0 014.3478 0zM7.826 0c.446 0 .8136.3357.8638.7682l.0059.1014v2.6087a.8696.8696 0 01-1.7333.1014l-.0059-.1014V.8696A.8696.8696 0 017.8261 0zM11.3043 0c.446 0 .8135.3357.8638.7682l.0058.1014v2.6087a.8696.8696 0 01-1.7333.1014l-.0058-.1014V.8696A.8696.8696 0 0111.3043 0z" />
        </g>
    </g>
</svg>
