<svg xmlns="http://www.w3.org/2000/svg" width="24" height="25">
    <path fill="#75767c" transform="translate(4 4.5)"
        d="M8.707.293l7 7a.97.97 0 0 1 .08.09l-.08-.1c.036.035.068.073.097.112l.05.074.02.037.03.06.023.053.02.06.014.045.016.065.01.053.007.06.003.056V8v.033l-.004.052L16 8c0 .05-.004.1-.01.15l-.01.052-.015.065-.014.046-.02.06-.023.05-.03.06-.022.037-.05.074-.017.022-.007.008-.073.082-7 7a1 1 0 0 1-1.414-1.414L12.585 9H1a1 1 0 1 1 0-2h11.585L7.293 1.707a1 1 0 0 1 0-1.414 1 1 0 0 1 1.414 0z" />
</svg>