<svg viewBox="0 0 32 32" height="32" width="32" xmlns="http://www.w3.org/2000/svg">
    <g fill="#d65656">
        <path
            d="M17.036,0.159a4.716,4.716 0,0 1,2.657 2.229L31.441,24.836a4.981,4.981 0,0 1,0.559 2.388,4.636 4.636,0 0,1 -1.259,3.343 3.356,3.356 0,0 1,-2.8 1.433L4.17,32a3.584,3.584 0,0 1,-2.1 -0.637,5.265 5.265,0 0,1 -1.538,-6.527L12.421,2.229a3.639,3.639 0,0 1,1.4 -1.592A3.832,3.832 0,0 1,17.036 0.159ZM16.057,9.711a1.421,1.421 0,0 0,-1.4 1.592v6.368a1.41,1.41 0,1 0,2.8 0L17.457,11.3A1.421,1.421 0,0 0,16.057 9.711ZM17.036,25.154a1.545,1.545 0,0 0,0.42 -1.114,1.062 1.062,0 0,0 -0.14,-0.637 0.861,0.861 0,0 0,-0.28 -0.478,0.474 0.474,0 0,0 -0.28,-0.159c-0.14,0 -0.14,-0.159 -0.28,-0.159s-0.14,0 -0.28,-0.159a1.583,1.583 0,0 0,-0.839 0.159c-0.14,0 -0.28,0.159 -0.42,0.318a0.861,0.861 0,0 0,-0.28 0.478c0,0.159 -0.14,0.318 -0.14,0.637a1.545,1.545 0,0 0,0.42 1.114,1.2 1.2,0 0,0 0.979,0.478A1.293,1.293 0,0 0,17.036 25.154Z" />
    </g>
</svg>

