<svg height="83" viewBox="0 0 113 83" width="113" xmlns="http://www.w3.org/2000/svg">
    <path
        d="M28,82.746c0.792,0.17 1.6,0.255 2.41,0.254h70.247C107.474,83 113,77.469 113,70.646L113,26.198c0.001,-6.726 -5.372,-12.216 -12.09,-12.354L85.318,13.844L85.318,5.196a4.976,4.976 0,0 0,-1.487 -3.68A5.04,5.04 0,0 0,80.154 0L49.068,0a5.123,5.123 0,0 0,-3.677 1.515,5.074 5.074,0 0,0 -1.488,3.68v8.648L30.41,13.843a1.214,1.214 0,0 0,-0.305 0c18.531,0.67 33.23,15.862 33.3,34.422 0,19.038 -15.59,34.46 -34.762,34.46 -0.214,0.02 -0.428,0.027 -0.643,0.02zM78.471,13.824L50.81,13.824L50.81,6.932h27.662v6.892z" />
    <path
        d="M29.477,20.001C15.127,19.865 2.805,30.095 0.412,44.132c-2.394,14.038 5.85,27.72 19.447,32.273A29.162,29.162 0,0 0,29.477 78C45.747,78 59,64.983 59,48.984c0,-15.998 -13.253,-28.983 -29.523,-28.983zM5.61,48.984c0.101,-8.973 5.299,-17.121 13.43,-21.054 8.13,-3.932 17.802,-2.976 24.99,2.472L10.714,63.5a23.107,23.107 0,0 1,-5.105 -14.515zM29.478,72.487a23.709,23.709 0,0 1,-10.346 -2.343,24.77 24.77,0 0,1 -4.205,-2.558l33.347,-33.077a23.036,23.036 0,0 1,5.105 14.475c-0.07,13.034 -10.763,23.55 -23.9,23.503z" />
</svg>