<svg viewBox="0 0 60 60" height="60" width="60" xmlns="http://www.w3.org/2000/svg">
    <g fill="#DDDDDD">
        <path
            d="M53.5,25.3c-0.3,-0.5 -0.6,-1 -0.9,-1.5c-0.2,-0.7 -0.4,-1.4 -0.7,-2c-0.1,-0.6 -0.2,-1.2 -0.2,-1.9c0,-1.7 -0.4,-3.3 -1.3,-4.7c-1.1,-1.3 -2.5,-2.2 -4.1,-2.7c-0.6,-0.3 -1.2,-0.5 -1.8,-0.8s-1,-0.8 -1.6,-1.1s-0.9,-0.9 -1.3,-1.4c-1,-1.4 -2.3,-2.5 -3.9,-3.1c-0.5,-0.2 -1.1,-0.3 -1.7,-0.2C35.1,5.8 34,6 33,6.2c-0.7,0.2 -1.3,0.3 -2,0.4h-1h-1c-0.7,-0.1 -1.3,-0.2 -2,-0.4c-1,-0.3 -2.1,-0.4 -3.2,-0.5c-0.6,0 -1.1,0.1 -1.6,0.2c-1.5,0.7 -2.9,1.7 -3.9,3.1c-0.5,0.5 -0.9,1 -1.3,1.4s-1.1,0.7 -1.6,1.1s-1.1,0.6 -1.8,0.8c-1.6,0.5 -3,1.4 -4.1,2.7c-0.8,1.4 -1.3,3.1 -1.3,4.7c-0.1,0.6 -0.1,1.3 -0.2,1.9c-0.2,0.7 -0.5,1.3 -0.7,2c-0.2,0.5 -0.6,1 -0.9,1.5c-1,1.4 -1.6,3 -1.8,4.7c0.1,1.7 0.8,3.3 1.8,4.7c0.3,0.5 0.6,1 0.9,1.5c0.2,0.7 0.4,1.4 0.7,2c0.1,0.6 0.2,1.2 0.2,1.9c0,1.7 0.5,3.3 1.3,4.7c1.1,1.3 2.5,2.2 4.1,2.7c0.6,0.3 1.2,0.5 1.8,0.8c0.5,0.3 1,0.8 1.6,1.1s0.9,0.9 1.3,1.4c1,1.4 2.3,2.5 3.9,3.1c0.5,0.2 1.1,0.3 1.7,0.2c1.1,0 2.1,-0.2 3.1,-0.5c0.7,-0.2 1.3,-0.3 2,-0.4h1h1c0.7,0.1 1.3,0.2 2,0.4c1,0.3 2.1,0.4 3.2,0.5c0.6,0 1.1,-0.1 1.6,-0.2c1.5,-0.7 2.9,-1.7 3.9,-3.1c0.4,-0.5 0.9,-1 1.3,-1.4s1.1,-0.7 1.6,-1.1s1.1,-0.5 1.8,-0.8c1.6,-0.5 3,-1.4 4.1,-2.7c0.8,-1.4 1.3,-3.1 1.3,-4.7c0.1,-0.7 0.1,-1.3 0.2,-1.9c0.2,-0.7 0.5,-1.3 0.7,-2c0.2,-0.5 0.5,-1 0.9,-1.5c1,-1.4 1.6,-3 1.8,-4.7C55.1,28.3 54.4,26.7 53.5,25.3zM30,51.9C17.9,51.9 8.1,42.1 8.1,30S17.9,8.1 30,8.1S51.9,17.9 51.9,30C51.9,42.1 42.1,51.9 30,51.9z"/>
    </g>
    <g fill="#DDDDDD">
        <path
            d="M22.6,31.5c-0.2,-0.4 -0.5,-0.7 -0.9,-0.7c-0.3,0 -0.8,0.1 -1.3,0.4l-1.3,0.8l1.3,2.3l1.4,-0.8C22.8,32.9 23.1,32.2 22.6,31.5zM25,35.1c-0.5,-0.8 -1.2,-1 -2.1,-0.5l-1.7,1l1.4,2.5l1.6,-0.9c0.5,-0.3 0.7,-0.6 0.9,-0.9C25.3,35.8 25.2,35.5 25,35.1zM25,35.1c-0.5,-0.8 -1.2,-1 -2.1,-0.5l-1.7,1l1.4,2.5l1.6,-0.9c0.5,-0.3 0.7,-0.6 0.9,-0.9C25.3,35.8 25.2,35.5 25,35.1zM22.6,31.5c-0.2,-0.4 -0.5,-0.7 -0.9,-0.7c-0.3,0 -0.8,0.1 -1.3,0.4l-1.3,0.8l1.3,2.3l1.4,-0.8C22.8,32.9 23.1,32.2 22.6,31.5zM30,10c-11,0 -20,9 -20,20s9,20 20,20s20,-9 20,-20S41,10 30,10zM27.2,36.5c-0.3,0.8 -1,1.5 -2,2.1l-3.6,2.1l-5.3,-9.2l3.2,-1.9c1.1,-0.6 2.1,-0.9 2.9,-0.8c0.8,0.1 1.5,0.6 2,1.4c0.3,0.5 0.4,0.9 0.3,1.4c0,0.5 -0.2,0.9 -0.5,1.3c0.5,-0.2 1.1,-0.1 1.5,0.1c0.5,0.2 0.9,0.6 1.2,1.1C27.4,34.9 27.5,35.8 27.2,36.5zM32,34.7l-4.4,-7.7l-2.8,1.6l-0.9,-1.5l7.5,-4.3l0.9,1.5L29.4,26l4.4,7.7L32,34.7zM43.5,27.1c-0.3,1 -1,1.7 -2.1,2.4c-1.2,0.7 -2.3,0.8 -3.5,0.4c-1.1,-0.4 -2.1,-1.3 -2.9,-2.7l-0.3,-0.6c-0.5,-0.9 -0.8,-1.8 -0.9,-2.6c-0.1,-0.9 0.1,-1.6 0.4,-2.3c0.4,-0.7 0.9,-1.3 1.7,-1.7c1.1,-0.6 2.1,-0.8 3.1,-0.6c1,0.2 1.8,0.8 2.5,1.7l-1.9,1.1c-0.4,-0.6 -0.8,-0.9 -1.2,-1c-0.4,-0.1 -0.9,0 -1.5,0.3c-0.6,0.4 -1,0.9 -1,1.5c0,0.6 0.2,1.4 0.7,2.4l0.4,0.7c0.6,1 1.2,1.6 1.7,1.9c0.6,0.3 1.2,0.2 1.8,-0.1c0.6,-0.3 0.9,-0.7 1.1,-1.2c0.1,-0.4 0.1,-0.9 -0.2,-1.5l1.9,-1.1C43.7,25.2 43.8,26.2 43.5,27.1zM23,34.6l-1.7,1l1.4,2.5l1.6,-0.9c0.5,-0.3 0.7,-0.6 0.9,-0.9c0.1,-0.4 0.1,-0.7 -0.1,-1.1C24.5,34.3 23.8,34.1 23,34.6zM22.6,31.5c-0.2,-0.4 -0.5,-0.7 -0.9,-0.7c-0.3,0 -0.8,0.1 -1.3,0.4l-1.3,0.8l1.3,2.3l1.4,-0.8C22.8,32.9 23.1,32.2 22.6,31.5z"/>
    </g>
</svg>