<svg xmlns="http://www.w3.org/2000/svg" width="240" height="201"><style><![CDATA[.B{fill-rule:nonzero}.C{fill:#f3b293}.D{fill:#647b91}.E{fill:#2c4293}.F{fill:#3686ff}]]></style><g fill="none" fill-rule="evenodd"><g fill="#cde6f8" class="B"><path d="M235.704 103.455c-15.16 55.704-66.097 96.637-126.595 96.637-41.432 0-78.375-19.177-102.402-49.164l-.665-.942c-15.77-19.704 1.413-35.972 43.37-25.912s54.042-5.072 81.645-35.474 77.71-82.78 101.93-51.796c9.45 12.083 8 38.688 2.716 66.65zM74.744 44.59c0 2.134-1.83 3.908-4.047 3.908H55.815c-1.068.004-2.094-.415-2.854-1.164a3.8 3.8 0 0 1-1.192-2.744c0-2.134 1.8-3.88 4-3.907h14.938c1.068-.004 2.094.414 2.855 1.164.756.713 1.187 1.704 1.192 2.743z"/><path d="M70.92 42.734a7.46 7.46 0 0 1-2.8 5.765h-9.866c-1.753-1.402-2.782-3.52-2.8-5.765.004-.694.107-1.385.305-2.05.914-3.104 3.907-5.405 7.427-5.405s6.513 2.3 7.427 5.405c.198.665.3 1.356.305 2.05z"/></g><ellipse cx="116.702" cy="160.129" fill="#abc9db" opacity=".43" rx="78.097" ry="2.938" class="B"/><g class="D B"><path d="M195.436 95.695H45.7l-2.356-10.503H193.08z"/><path d="M68.425 129.755v-41.32l9.7-.665v41.487z"/><path d="M192 114.873H46.17l-2.356-10.476h149.737z"/><path d="M161.82 129.755v-41.32l9.727-.665v41.487z"/></g><path fill="#a4adbb" d="M195.436 130.67H46.17l-2.356-7.095h149.737z" class="B"/><path d="M177.894 161.044v-33.45l9.727-.472-1.746 34.005z" class="B D"/><path fill="#8e5633" d="M63.076 161.044v-33.45l-9.727-.472 1.746 34.005z" class="B"/><path fill="#a4adbb" d="M194.827 93.007L45.7 92.952l-2.356-7.788 149.737.055zm-2.827 19.4H46.17l-2.356-8.01h149.737z" class="B"/><path d="M195.436 130.67H46.17l-1.386-4.185h149.543z" class="B D"/><path d="M136.767 107.196s3.907 4.628 3.076 10.892-9.45 5.653-11.4 5.57-8.453-.083-13.192-.083-15.353-.333-16.794-.14-3.02-11.806 1.662-13.8 6.624-2.8 8.453-2.44 6.097-.693 12.47.832 10.892 4.268 15.714-.832z" class="B E"/><path d="M133.192 76.822c0-2.965-8.176-5.71-11.307-6.32a21.22 21.22 0 0 0-8.037.139c-2.107.443-11.17 4.157-11.668 4.96s1.275 21.23 1.94 28.075 1.275 8.98 9.728 8.702 13.607-.333 15.297-.832 1.72-3.796 2.107-10.642c.332-5.653 1.94-21.117 1.94-24.083z" class="B F"/><path d="M139.067 85.968s5.016 11.085 5.792 13.358c1.164 3.242-4.85 7.316-7.483 3.214-1.773-2.743-5.237-10.67-6.235-13.247s6.374-4.988 7.926-3.325z" class="B C"/><path d="M140.647 87.63s-2.495-6.872-4.35-9.533-3.4-4.212-5.432-3.242-2.966 6.263-2.08 10.586 1.7 4.684 1.7 4.684l10.172-2.495z" class="B F"/><g class="C B"><path d="M138.65 106.115c.693 1.83 4.74 8.813 6.762 12.388s3.38 3.298 4.933 2.3-.138-4.932-.97-8.48-1.94-8.896-3.297-11.25c-2.3-4.074-10.255-2.467-7.428 5.043z"/><path d="M159.935 121.607s-5.07-2.134-8.702-2.355-4.71.526-3.464 3.41c.637 1.524 8.397.803 11.473.914s1.22-1.496.693-1.968zm-63.713-35.86l-5.792 13.33c-1.137 3.27 4.877 7.344 7.5 3.243 1.746-2.744 5.238-10.67 6.236-13.247s-6.375-4.99-7.954-3.326z"/></g><path d="M94.642 87.41s2.522-6.873 4.38-9.534 3.38-4.212 5.404-3.242 2.993 6.235 2.106 10.586-1.7 4.684-1.7 4.684l-10.2-2.494z" class="B F"/><g class="C B"><path d="M96.637 105.894c-.692 1.8-4.7 8.813-6.734 12.388s-3.38 3.298-4.933 2.3.14-4.933.97-8.48 1.94-8.896 3.27-11.252c2.328-4.074 10.254-2.467 7.427 5.044z"/><path d="M75.353 121.386s5.1-2.134 8.73-2.356c4.046-.222 4.684.527 3.464 3.41-.665 1.524-8.397.803-11.5.914s-1.22-1.496-.694-1.967zm59.723 22.89l-1.08 10.365s-6.652-1.635-6.513-2.744.526-6.68.526-6.68 7.067-3.408 7.067-.942z"/></g><path fill="#332966" d="M134.744 151.178s3.02 8.563.36 9.838c-1.607.748-5.072.14-8.785-.388-9.728-1.413.803-10.254.803-10.254a19.72 19.72 0 0 0 7.622.804z" class="B"/><path d="M142.115 113.127l-5.1 32.73c-.1.968-.42 1.903-.914 2.743l-9.2-1.025a6.88 6.88 0 0 1-.25-3.02l3.104-32.98c.212-1.632 1.058-3.116 2.356-4.13a6.35 6.35 0 0 1 4.6-1.274c3.403.446 5.813 3.548 5.404 6.956z" class="B E"/><path d="M106.448 144.14l.14 10.42s-6.8-.86-6.8-1.968l-.25-6.706s6.624-4.185 6.9-1.746z" class="B C"/><path fill="#332966" d="M106.92 151.04s4.018 8.147 1.496 9.727c-1.497.914-5.016.72-8.786.6-9.8-.278-.388-10.255-.388-10.255a19.62 19.62 0 0 0 7.677-.083z" class="B"/><path d="M109.83 112.38l-1.276 33.1c0 .972-.198 1.934-.582 2.827l-9.256.055a6.55 6.55 0 0 1-.61-2.965l-.72-33.118a6.24 6.24 0 0 1 6.273-5.769 6.24 6.24 0 0 1 6.17 5.88z" class="B E"/><path d="M121.885 72.998c-.084.72-1.885 3.13-4.24 2.993s-3.4-2.772-3.437-3.852v-4.296l.028-4c0-1.996 1.385-3.4 3.325-3.77s4.046-.83 4.324.416v12.5z" class="B C"/><path fill="#dd9c83" d="M121.885 67.233v.167a5.6 5.6 0 0 1-3.908 1.385c-1.663-.055-2.855-.332-3.77-.942l.03-4c0-1.996 1.385-3.4 3.325-3.77s4.046-.83 4.324.416v6.734z" class="B"/><path fill="#6c2627" d="M121.968 46.3s.415-2.55-5.2-2.2-8.758 5.2-8.204 7.87 1.72 2.938 1.72 2.938l.83.472 2.966 2.133s1.996-5.847 4.324-7.288 4.434-2.41 3.575-3.936z" class="B"/><path d="M110.744 50.744s-1.053 5.46 0 10.226 2.217 6.402 6.512 6.513 6.846-3.825 6.984-11.28-9.56-10.004-13.496-5.46z" class="B C"/><g fill="#6c2627" class="B"><path d="M112.212 47.53s-2.605 2.882-2.52 4.545 5.016.942 7.87-.5 5.32-2.605 4.6-4.573-4.572-2.965-9.95.527z"/><path d="M122.716 44.065s.5 2.023-1.386 2.743-.305 1.026-.305 1.026l-1.746 1.7s.915 2.9 2.467 4.407 1.22 3.02 1.524 3.602.665-2.577 1.524-.526-.36 3.076-.36 3.076 3.298-3.77 2.966-8.48-1.192-3.575-2.162-3.658-.14-1.774-.998-2.744-1.524-1.136-1.524-1.136z"/></g><ellipse cx="125.238" cy="58.531" rx="1.691" ry="2.356" class="B C"/><rect width="9.118" height="22.01" x="49.053" y="89.903" stroke="#474747" stroke-linejoin="round" stroke-width="10" rx="4.559"/><g class="B"><path fill="#005a76" d="M69.118 143.612l1.247 10.808-29.543-.277c-1.413-.166-.166-11.085 3.187-13.496s25.11 2.965 25.11 2.965z"/><g fill="#025163"><path d="M62.08 107.806s-9.174.083-15.437.416-8.62 1.136-8.23 7.732 3.768 10.586 4.073 10.586 12.942-8.785 15.298-10.032 4.296-8.702 4.296-8.702z"/><rect width="12.471" height="46.046" x="38.217" y="108.111" rx="6.236"/></g><path fill="#005a76" d="M70.836 110.106s-2.827-2.106-4.6-2.328-8.87.11-10.81.222-5.847.1-5.847 3.88v38.77c.166 1.774.693 3.437 3.16 3.437s16.185.332 17.626.332.776-43.427.47-44.314z"/><g fill="#077d99"><rect width="22.005" height="12.33" x="51.27" y="137.931" rx="6.165"/><rect width="22.005" height="14.198" x="51.27" y="121.386" rx="7.099"/><rect width="22.005" height="10.354" x="51.27" y="109.94" rx="5.177"/></g><g fill="#474747"><ellipse cx="62.023" cy="158.189" rx="2.217" ry="2.882"/><ellipse cx="44.425" cy="158.189" rx="2.217" ry="2.882"/><path d="M53.57 155.28h1.774v5.787H53.57zm13.386 0h1.774v5.787h-1.774z"/></g><g fill="#cde6f8"><path d="M164.23 19.206a8.04 8.04 0 0 1-8.037 8.036h-29.68a8.04 8.04 0 0 1-8.093-7.981 8.04 8.04 0 0 1 7.982-8.092h29.792c2.13.007 4.17.853 5.68 2.355s2.36 3.55 2.356 5.682z"/><path d="M156.6 15.41c.008 4.58-2.036 8.922-5.57 11.833H131.4c-3.534-2.91-5.578-7.254-5.57-11.833a16.46 16.46 0 0 1 .582-4.24A15.41 15.41 0 0 1 143.342.201a15.41 15.41 0 0 1 13.268 15.208z"/></g></g></g></svg>