<svg xmlns="http://www.w3.org/2000/svg" width="20" height="15" fill="#757575">
    <path
        d="M0 1v13a1 1 0 0 0 1 1h18a1 1 0 0 0 1-1V1a1 1 0 0 0-1-1H1a1 1 0 0 0-1 1zm18 12H2V2h16v11z" />
    <path
        d="M11.674 12c.02 0 .028-.007.028-.02v-.145l-2.69-3.07c-.238-.26-.357-.41-.357-.445v-.01c.483 0 1-.12 1.518-.36.283-.107.58-.34.9-.702.234-.357.363-.663.385-.916h1.008c.008 0 .185-.246.533-.74 0-.01-.01-.018-.028-.02h-1.552A1.76 1.76 0 0 0 11 4.761h1.456c.042-.032.223-.282.544-.75V4H7.55c-.01 0-.19.245-.538.734v.027h1.44c.242 0 .514.046.816.14.423.157.708.377.856.66v.01H7.55c-.008 0-.19.246-.55.74 0 .014.008.02.023.02h3.24c0 .114-.023.225-.068.332-.29.732-1.033 1.098-2.227 1.098a5.12 5.12 0 0 1-.663-.038l-.01.027v.713c0 .01 1.065 1.2 3.195 3.537h1.184z"
        stroke="#757575" stroke-width=".25" />
</svg>