<svg xmlns="http://www.w3.org/2000/svg" xmlns:xlink="http://www.w3.org/1999/xlink" viewBox="0 0 24 24">
    <defs>
        <path id="a" d="M11 0C4.9 0 0 4.9 0 11s4.9 11 11 11 11-4.9 11-11S17.1 0 11 0zm0 20c-5 0-9-4-9-9s4-9 9-9 9 4 9 9-4 9-9 9zm3.7-6.7c.4.4.4 1 0 1.4-.2.2-.4.3-.7.3-.3 0-.5-.1-.7-.3l-3-3c-.2-.2-.3-.4-.3-.7V5c0-.6.4-1 1-1s1 .4 1 1v5.6l2.7 2.7z"/>
    </defs>
    <g fill="none" fill-rule="evenodd" transform="translate(1 1)">
        <mask id="b" fill="#fff">
            <use xlink:href="#a"/>
        </mask>
        <use fill="#000" xlink:href="#a"/>
        <g fill="#75767C" mask="url(#b)">
            <path d="M0 0H24V24H0z" transform="translate(-1 -1)"/>
        </g>
    </g>
</svg>