<svg xmlns="http://www.w3.org/2000/svg" width="16" height="15" viewBox="0 0 16 15">
    <path fill="#D65656"
        d="M15.84 13.28L8.897 1.206c-.402-.7-1.41-.7-1.812 0L.142 13.28c-.403.7.1 1.576.906 1.576h13.886c.805 0 1.309-.877.906-1.576zM8 4.924c.446 0 .806.371.793.818l-.131 4.585c-.01.361-.305.647-.664.647-.36 0-.655-.289-.665-.647l-.127-4.585c-.01-.447.347-.818.795-.818zm-.009 8.293c-.455 0-.825-.37-.825-.827 0-.457.37-.828.825-.828.455 0 .825.371.825.828 0 .456-.37.827-.825.827z" />
</svg>
