<svg width="20" xmlns="http://www.w3.org/2000/svg" height="20" viewBox="0 0 28 28">
    <circle cx="14" cy="14" r="12" stroke="#00b96e" stroke-width="3px" fill="none" />
    <path fill="#00b96e" stroke-width="1px" stroke="#00b96e"
        d="M7.65,14.192a0.54,0.54 0,0 1,-0.15 -0.35c0,-0.1 0.05,-0.25 0.15,-0.35l0.7,-0.7c0.2,-0.2 0.5,-0.2 0.7,0l0.05,0.05 2.75,2.95c0.1,0.1 0.25,0.1 0.35,0l6.7,-6.95h0.05c0.2,-0.2 0.5,-0.2 0.7,0l0.7,0.7c0.2,0.2 0.2,0.5 0,0.7l-8,8.3c-0.1,0.1 -0.2,0.15 -0.35,0.15 -0.15,0 -0.25,-0.05 -0.35,-0.15l-3.9,-4.2 -0.1,-0.15z" />
</svg>
