<svg viewBox="0 0 54 54" height="54" width="54" xmlns="http://www.w3.org/2000/svg">
    <g fill="#03B96E" fill-opacity="0.8" stroke-width="1" stroke-opacity="0.8">
        <path
            d="M27,54C41.8814,54 54,41.8814 54,27C54,12.1186 41.8814,0 27,0C12.1186,0 0,12.1186 0,27C0,41.8814 12.1186,54 27,54ZM13.186,25.9326C14.1907,24.9279 15.7605,24.9279 16.7651,25.9326L22.6674,31.8349L35.9791,18.5233C36.9837,17.5186 38.5535,17.5186 39.5581,18.5233C40.5628,19.5279 40.5628,21.0977 39.5581,22.1023L24.4884,37.1721C23.986,37.6744 23.3581,37.9256 22.7302,37.9256C22.1023,37.9256 21.4744,37.6744 20.9721,37.1721L13.186,29.5116C12.2442,28.507 12.2442,26.9372 13.186,25.9326Z"/>
    </g>
</svg>