<svg xmlns="http://www.w3.org/2000/svg" width="38" height="37" viewBox="0 0 38 37">
    <path fill="#000"
        d="M.967 0v2.734h1.651v28.982c0 .768.307 1.505.851 2.048l3.23 3.226 4.176-4.173 4.177 4.173 4.177-4.173 4.176 4.173 4.177-4.173L31.73 37l1.344-1.343 1.934-1.884c.546-.545.852-1.286.85-2.057V2.734h1.506V0H.967zm21.24 11.921h2.05l-.533 2.01h-1.527c-.11.92-.537 1.774-1.209 2.415-.797.67-1.764 1.108-2.794 1.265l4.457 5.275v.145h-3.384l-4.93-5.797v-1.787h2.416c1.054.137 2.054-.503 2.37-1.516h-5.028l.522-2.01h4.438c-.379-.853-1.268-1.361-2.195-1.256h-2.794l.6-2.473h9.59l-.522 2.029h-2.137c.326.515.534 1.096.61 1.7z"
        opacity=".56" />
</svg>
