<svg xmlns="http://www.w3.org/2000/svg" xmlns:xlink="http://www.w3.org/1999/xlink" width="16"
    height="16">
    <defs>
        <path id="A"
            d="M8 .667A7.31 7.31 0 0 0 .667 8 7.31 7.31 0 0 0 8 15.333 7.31 7.31 0 0 0 15.333 8 7.31 7.31 0 0 0 8 .667zM8 14c-3.333 0-6-2.667-6-6s2.667-6 6-6 6 2.667 6 6-2.667 6-6 6zm.667-6v2.667c0 .4-.267.666-.667.666s-.667-.266-.667-.666V8c0-.4.267-.667.667-.667s.667.267.667.667zm-.2-3.133c.133.133.2.266.2.466s-.067.334-.2.467S8.2 6 8 6h-.133C7.8 6 7.8 6 7.733 5.933c-.066 0-.066-.066-.133-.066S7.533 5.8 7.533 5.8c-.133-.133-.2-.267-.2-.467s.067-.333.2-.466L7.6 4.8c.067 0 .067-.067.133-.067s.067 0 .134-.066c.2 0 .466.066.6.2z" />
    </defs>
    <mask id="B" fill="#fff">
        <use xlink:href="#A" />
    </mask>
    <use fill="#000" xlink:href="#A" />
    <g fill="#101217" mask="url(#B)">
        <path d="M0 0H16V16H0z" />
    </g>
</svg>