<svg xmlns="http://www.w3.org/2000/svg" width="21" height="21" viewBox="0 0 21 21">
    <path fill="#9BA3B8" fill-opacity="0.3" stroke-opacity="0.3"
          d="M10.281,0.281c-5.523,0 -10,4.477 -10,10s4.477,10 10,10 10,-4.477 10,-10a10,10 0,0 0,-10 -10zM10.081,15.263a1.574,1.574 0,0 1,-0.302 -0.08,0.934 0.934,0 0,1 -0.632,-0.87v-0.2,-4.766c-0.022,-0.482 0.277,-0.92 0.734,-1.076a1.166,1.166 0,0 1,1.35 0.386,0.98 0.98,0 0,1 0.2,0.612v2.466c0,0.8 -0.016,1.6 0,2.4a1.134,1.134 0,0 1,-1.35 1.128zM10.257,7.735a1.228,1.228 0,1 1,0.01 0h-0.01z"/>
</svg>