<svg xmlns="http://www.w3.org/2000/svg" width="624" height="149" viewBox="0 0 624 149">
    <g fill="#FDDC2C">
        <g>
            <path d="M152 53.157L180.139 73 190 58.843 161.86 39z" opacity=".239" transform="translate(0 -10) rotate(180 129.5 79.5)"/>
            <path d="M234.424 0L225 33.508 242.576 38 252 4.492z" opacity=".158" transform="translate(0 -10) rotate(180 129.5 79.5)"/>
            <path d="M245.038 62L224 89.602 237.962 100 259 72.398zM189 124.856L212.49 138 219 126.144 195.51 113zM109.264 132L130 104.128 115.736 94 95 121.872zM17.076 151L56 133.145 46.924 114 8 131.855zM8.345 83L26 67.207 17.656 58 0 73.793z" opacity=".239" transform="translate(0 -10) rotate(180 129.5 79.5)"/>
        </g>
        <g>
            <path d="M262 58.157L290.139 78 300 63.843 271.86 44z" opacity=".239" transform="translate(0 -10) rotate(180 319.5 67)"/>
            <path d="M335.075 96L326 129.508 342.925 134 352 100.492z" opacity=".158" transform="translate(0 -10) rotate(180 319.5 67)"/>
            <path d="M259.038 86L238 113.602 251.962 124 273 96.398zM181 86.856L204.49 100 211 88.144 187.51 75zM100.264 107L121 79.128 106.736 69 86 96.872zM8.887 106L47 88.145 38.113 69 0 86.855zM63.233 34L87 12.521 75.767 0 52 21.479z" opacity=".239" transform="translate(0 -10) rotate(180 319.5 67)"/>
        </g>
    </g>
</svg>
