<svg xmlns="http://www.w3.org/2000/svg" width="28" height="24" viewBox="0 0 28 24">
    <g fill="#1e254a">
        <path d="M25.015 5.722h-4.85c.271-.56.416-1.19.396-1.857-.063-2.083-1.748-3.782-3.83-3.862-1.183-.045-2.258.429-3.017 1.211-.758-.782-1.833-1.256-3.017-1.211-2.082.08-3.766 1.78-3.83 3.862-.02.666.125 1.298.397 1.857h-4.85C1.08 5.722 0 6.802 0 8.136v1.52c0 .355.288.643.644.643h26.14c.356 0 .645-.288.645-.644v-1.52c0-1.333-1.081-2.413-2.414-2.413zm-8.44-3.47c.957 0 1.735.779 1.735 1.735 0 .957-.778 1.735-1.735 1.735h-1.734V3.987c0-.956.778-1.734 1.734-1.734zM9.12 3.988c0-.956.778-1.734 1.734-1.734.957 0 1.735.778 1.735 1.734v1.735h-1.735c-.956 0-1.734-.778-1.734-1.735zM15.484 23.995h5.955c2.044 0 3.7-1.657 3.7-3.7v-7.1c0-.355-.287-.643-.643-.643h-9.012c-.355 0-.643.288-.643.644v10.156c0 .355.288.643.643.643zM2.289 20.294c0 2.044 1.657 3.701 3.701 3.701h5.954c.356 0 .644-.288.644-.643V13.196c0-.356-.288-.644-.644-.644H2.932c-.355 0-.643.288-.643.644v7.098z"/>
    </g>
</svg>
