<svg xmlns="http://www.w3.org/2000/svg" width="54" height="24">
    <g fill-rule="evenodd">
        <rect y="-.008" width="54" height="24" rx="12.671" fill="#f5f4f4" />
        <path
            d="M15.694 14.195q0-.498-.387-.762-.387-.27-1.395-.562-1.007-.3-1.595-.586-1.6-.785-1.6-2.115 0-.7.426-1.23.433-.545 1.233-.85.807-.305 1.808-.305 1.007 0 1.795.334.788.328 1.22.932.44.604.44 1.37H15.7q0-.586-.407-.908-.407-.328-1.143-.328-.7 0-1.104.275-.394.27-.394.715 0 .416.458.697.465.28 1.363.527 1.653.45 2.4 1.12.756.668.756 1.664 0 1.107-.923 1.74-.923.627-2.486.627-1.085 0-1.976-.357-.9-.363-1.363-1-.465-.627-.465-1.453h1.944q0 1.412 1.86 1.412.7 0 1.078-.252.387-.258.387-.715zm5.108 2.24H18.93v-6.34h1.873zm-1.982-7.98q0-.38.278-.627.284-.246.768-.246.478 0 .762.246.284.246.284.627 0 .387-.3.633-.284.246-.756.246-.47 0-.762-.246-.284-.246-.284-.633zm5.495 7.98h-1.873v-9h1.873zm4.158-2.07l1.298-4.27h1.95l-2.357 6.34h-1.782l-2.357-6.34h1.95zm7.213 2.185q-1.537 0-2.505-.855-.962-.855-.962-2.28v-.164q0-.955.407-1.705.407-.756 1.15-1.16.75-.4 1.705-.4 1.434 0 2.254.82.827.82.827 2.326v.7h-4.45q.1.62.542.996.458.375 1.156.375 1.078 0 1.685-.7l.917.932q-.42.54-1.137.844-.717.3-1.6.3zm-.213-5.203q-.555 0-.904.34-.342.34-.44.973h2.596v-.135q-.013-.562-.336-.867-.323-.3-.917-.3zm8.077.335q-.38-.047-.672-.047-1.06 0-1.388.65v4.148h-1.866v-6.34h1.763l.052.756q.562-.873 1.556-.873.3 0 .58.076z"
            fill="#9c9a9a" />
    </g>
</svg>