<svg width="49px" height="24px" viewBox="0 0 149.73 73.337" xmlns="http://www.w3.org/2000/svg">
    <g fill-rule="evenodd">
        <path
            d="M36.569-.005h76.39c20.315 0 36.668 16.354 36.668 36.668s-16.353 36.668-36.667 36.668H36.569C16.255 73.33-.1 56.977-.1 36.663S16.255-.005 36.57-.005z"
            fill="#ecf3fc" />
        <g fill="#4990e2">
            <path
                d="M55.578 40.72q0 1.935-.788 3.456-.77 1.522-2.13 2.525-1.576 1.182-3.474 1.683-1.88.501-4.78.501H32.768V22.226h10.349q3.222 0 4.708.215 1.504.215 2.972.949 1.522.77 2.256 2.077.752 1.289.752 2.954 0 1.934-1.02 3.42-1.02 1.468-2.883 2.291v.143q2.614.52 4.136 2.149 1.54 1.63 1.54 4.297zm-8.809-10.956q0-.663-.34-1.325-.322-.663-1.164-.985-.752-.286-1.88-.304-1.11-.036-3.133-.036h-.645v5.64h1.075q1.629 0 2.775-.054t1.808-.358q.931-.412 1.218-1.057.286-.662.286-1.521zm1.683 10.85q0-1.272-.501-1.952-.484-.698-1.665-1.038-.806-.233-2.22-.251-1.415-.018-2.955-.018h-1.503v6.642h.5q2.901 0 4.155-.018 1.253-.018 2.31-.465 1.074-.448 1.467-1.182.412-.752.412-1.719zM66.786 48.886H60.34v-27.86h6.446zM92.909 48.886h-6.446v-2.22q-1.79 1.36-3.276 2.076-1.487.699-3.546.699-3.33 0-5.138-1.916-1.79-1.916-1.79-5.658V28.779h6.48v9.973q0 1.522.09 2.542.108 1.003.466 1.665.34.663 1.02.967.699.304 1.934.304.824 0 1.826-.304t1.934-.895V28.779h6.446zM118.814 40.024h-14.753q.144 2.364 1.79 3.617 1.666 1.253 4.889 1.253 2.04 0 3.956-.734t3.026-1.575h.716v5.174q-2.184.877-4.118 1.271-1.933.394-4.279.394-6.052 0-9.274-2.721-3.223-2.722-3.223-7.753 0-4.977 3.044-7.878 3.061-2.918 8.379-2.918 4.906 0 7.376 2.489 2.471 2.47 2.471 7.125zm-6.41-3.778q-.053-2.023-1.002-3.043t-2.954-1.02q-1.862 0-3.062.966-1.2.967-1.343 3.098z" />
        </g>
    </g>
</svg>