<svg xmlns="http://www.w3.org/2000/svg" width="73" height="24">
    <g fill-rule="evenodd">
        <rect y="-.004" width="73" height="24" rx="11.497" fill="#f0e8f0" />
        <path
            d="M14.738 12.723v3.006H12.98V7.2h3.328q.96 0 1.688.352.732.352 1.125 1.002.393.645.393 1.47 0 1.254-.86 1.98-.855.72-2.373.72zm0-1.424h1.57q.697 0 1.06-.328.37-.328.37-.937 0-.627-.37-1.014-.37-.387-1.02-.398h-1.6zm7.662 4.43h-1.7v-9h1.7zm5.064 0q-.117-.23-.17-.568-.615.686-1.6.686-.932 0-1.547-.54-.6-.54-.6-1.36 0-1.008.744-1.547.75-.54 2.162-.545h.78v-.363q0-.44-.23-.703-.223-.264-.7-.264-.428 0-.674.205-.24.205-.24.563h-1.69q0-.55.34-1.02.34-.47.96-.732.62-.27 1.395-.27 1.172 0 1.857.592.7.586.7 1.652v2.748q.006.902.252 1.365v.1zm-1.4-1.178q.375 0 .7-.164.316-.17.47-.45v-1.1h-.633q-1.27 0-1.353.88l-.006.1q0 .316.223.52.223.205.6.205zm6.2-6.722V9.4h1.084v1.242h-1.084v3.164q0 .352.135.504.135.152.516.152.28 0 .498-.04v1.283q-.498.152-1.025.152-1.78 0-1.816-1.8V10.64h-.926V9.4h.926V7.83zm3.815 7.9h-1.7V9.4h1.7zm-1.8-7.98q0-.38.252-.627.258-.246.697-.246.434 0 .7.246.258.246.258.627 0 .387-.264.633-.258.246-.686.246-.428 0-.7-.246-.258-.246-.258-.633zm4.76 1.64l.053.732q.68-.85 1.822-.85 1.008 0 1.5.592.492.592.504 1.77v4.096h-1.693v-4.055q0-.54-.234-.78-.234-.246-.78-.246-.715 0-1.072.6v4.47h-1.693V9.4zm8.965 5.695q-.627.762-1.734.762-1.02 0-1.56-.586-.533-.586-.545-1.717V9.4h1.693v4.096q0 1 .902 1 .86 0 1.184-.598V9.4h1.7v6.34H48.05zM52.52 9.4l.053.7q.674-.826 1.822-.826 1.225 0 1.682.967.668-.967 1.904-.967 1.03 0 1.535.604.504.598.504 1.805v4.05h-1.7V11.7q0-.54-.2-.785-.2-.252-.744-.252-.762 0-1.055.727l.006 4.354h-1.693v-4.037q0-.55-.217-.797-.217-.246-.738-.246-.72 0-1.043.598v4.482H50.93V9.4z"
            fill="#6b1d69" />
    </g>
</svg>