<svg xmlns="http://www.w3.org/2000/svg" width="49" height="24">
    <g fill-rule="evenodd">
        <rect y="-.004" width="49" height="24" rx="11.497" fill="#fbf8eb" />
        <path
            d="M19.604 15.36q-.475.568-1.342.885-.867.3-1.922.3-1.107 0-1.945-.48-.832-.486-1.3-1.406-.45-.92-.463-2.162v-.58q0-1.277.428-2.2.434-.937 1.242-1.43.814-.498 1.904-.498 1.518 0 2.373.727.855.72 1.014 2.104h-1.7q-.117-.732-.52-1.072-.398-.34-1.102-.34-.896 0-1.365.674-.47.674-.475 2.004v.545q0 1.342.5 2.027.5.686 1.494.686 1 0 1.412-.422v-1.47h-1.6v-1.295h3.357zm1.056-2.15q0-.943.363-1.682.363-.738 1.043-1.143.686-.404 1.588-.404 1.283 0 2.092.785.814.785.908 2.133l.012.434q0 1.46-.814 2.344-.814.88-2.185.88-1.37 0-2.2-.88-.814-.88-.814-2.4zm1.693.123q0 .902.34 1.383.34.475.973.475.615 0 .96-.47.346-.475.346-1.512 0-.885-.346-1.37-.346-.486-.973-.486-.62 0-.96.486-.34.48-.34 1.494zm7.153 3.104h-1.7v-9h1.7zm1.137-3.217q0-1.482.662-2.36.668-.88 1.822-.88.926 0 1.53.7V7.438h1.7v9h-1.53l-.082-.674q-.633.8-1.63.8-1.12 0-1.8-.88-.674-.885-.674-2.455zm1.693.123q0 .9.3 1.365.3.475.902.475.785 0 1.107-.662v-2.5q-.316-.662-1.096-.662-1.225 0-1.225 1.986z"
            fill="#d9bc3c" />
    </g>
</svg>