<svg xmlns="http://www.w3.org/2000/svg" width="104" height="119" viewBox="0 0 104 119">
    <g fill="#757575">
        <path
            d="M97.915,98.824L23.467,22.21 7.768,6.013 0,13.793l17.131,17.085v0.056a44.726,44.726 0,0 0,-4.855 20.87v30.507L0,94.514v6.101h83.996l12.236,12.203L104,105.07l-6.085,-6.246zM48.974,119a12.211,12.211 0,0 0,8.663 -3.562,12.146 12.146,0 0,0 3.572,-8.64L36.706,106.798a12.146,12.146 0,0 0,3.572 8.64A12.211,12.211 0,0 0,48.94 119h0.033zM85.679,74.338L85.679,51.86c0,-18.788 -10.034,-34.413 -27.513,-38.56L58.166,9.151C58.166,4.097 54.058,0 48.99,0c-5.068,0 -9.177,4.097 -9.177,9.152v4.124c-0.914,0.186 -1.772,0.492 -2.565,0.734 -0.615,0.186 -1.222,0.428 -1.837,0.67h-0.065c-0.056,0 -0.056,0 -0.121,0.065 -1.408,0.549 -2.808,1.219 -4.16,1.888a0.057,0.057 0,0 0,-0.056 0.065l54.67,57.64z" />
    </g>
</svg>
