<svg height="24" viewBox="0 0 24 24" width="24" xmlns="http://www.w3.org/2000/svg">
    <g fill="#FFFFFF" transform="translate(0,2)">
        <path
            d="M23.9 8.4c0 .1-.1.1-.1.2 0 0 0 .1-.101.1-.1.1-.201.2-.302.2-.1.1-.3.1-.401.1H16.97c-.603 0-1.004-.4-1.004-1s.401-1 1.004-1h3.514l-2.811-2.601c-.904-.9-1.908-1.5-3.013-1.9-2.008-.7-4.217-.6-6.125.3-2.009.9-3.415 2.5-4.118 4.5-.2.5-.803.8-1.305.6-.502-.1-.803-.7-.603-1.2.904-2.6 2.712-4.6 5.122-5.7 2.41-1.2 5.121-1.3 7.632-.4 1.405.5 2.71 1.3 3.715 2.4l3.013 2.7V2c0-.6.401-1 1.004-1 .602 0 1.004.4 1.004 1v6.1c0 .1 0 .2-.1.3zm-3.113 3.7c-.502-.2-1.105.1-1.306.6-.402 1.1-1.004 2.2-1.908 3-1.406 1.5-3.514 2.3-5.623 2.3-2.109 0-4.117-.8-5.724-2.4L3.414 13H6.93c.602 0 1.004-.4 1.004-1s-.402-1-1.004-1H.503s-.101 0-.101.1c-.1 0-.201.1-.201.2 0 0 0 .1-.1.1 0 .1-.101.1-.101.2v6.3c0 .6.402 1 1.004 1 .603 0 1.004-.4 1.004-1v-3.7L4.921 17c1.807 2 4.317 3 7.029 3 2.711 0 5.222-1 7.13-2.9 1.004-1 1.907-2.3 2.41-3.7.1-.6-.201-1.2-.703-1.3z" />
    </g>
</svg>