<svg xmlns="http://www.w3.org/2000/svg" width="24" height="24" fill="#546e7a">
    <rect fill="#eceff1" width="24" height="24" rx="12" />
    <path
        d="M14.862 3.53c.234-.234.6-.258.86-.07l.083.07 2.667 2.667c.234.234.258.6.07.86l-.07.083-2.667 2.667c-.26.26-.682.26-.943 0-.234-.234-.258-.6-.07-.86l.07-.083 2.194-2.196-2.194-2.195c-.234-.234-.258-.6-.07-.86l.07-.083z" />
    <path
        d="M18 6c.368 0 .667.298.667.667a.67.67 0 0 1-.568.66l-.1.007H8.667a2 2 0 0 0-1.995 1.851l-.005.15v1.333c0 .368-.298.667-.667.667a.67.67 0 0 1-.66-.568l-.007-.1V9.333c0-1.78 1.395-3.233 3.15-3.328L8.667 6H18zm-9.805 6.862a.67.67 0 0 1 .943 0c.234.234.258.6.07.86l-.07.083L6.943 16l2.195 2.195c.234.234.258.6.07.86l-.07.083c-.234.234-.6.258-.86.07l-.083-.07L5.53 16.47c-.234-.234-.258-.6-.07-.86l.07-.083 2.667-2.667z" />
    <path
        d="M18 11.333c.335 0 .612.247.66.568l.007.1v1.333c0 1.78-1.395 3.233-3.15 3.328l-.183.005H6c-.368 0-.667-.298-.667-.667 0-.335.247-.612.568-.66l.1-.007h9.333a2 2 0 0 0 1.995-1.851l.005-.15V12c0-.368.298-.667.667-.667z" />
</svg>