<svg height="44" viewBox="0 0 28 44" width="28" xmlns="http://www.w3.org/2000/svg">
    <g fill="#B6BCCC">
        <path
            d="M25.385,0H2.655C1.19,0 0,1.164 0,2.6v33.642c0,1.436 1.189,2.6 2.655,2.6h2.656V40.4C5.31,41.836 6.5,43 7.966,43c0,0 15.932,-3.68 17.42,-4.159a3.458,3.458 0,0 0,2.601 -2.079,2.697 2.697,0 0,0 0,-0.52V2.6c0,-1.415 -1.156,-2.57 -2.602,-2.599zM2.547,36C2.245,36 2,35.772 2,35.49V2.51c0,-0.282 0.245,-0.51 0.547,-0.51H17L8.022,4.038c-1.445,0.337 -2.737,1.142 -2.737,2.548V36H2.547zM8,19.528A1.5,1.5 0,1 1,9.49 21,1.49 1.49,0 0,1 8,19.528z"/>
    </g>
</svg>