<svg xmlns="http://www.w3.org/2000/svg" width="17" height="16" viewBox="0 0 17 16">

    <g fill="#F7B510">
        <path
            d="M16.2826,7.0434L12.9419,9.7717C12.7412,9.935 12.6528,10.2004 12.714,10.4521L13.7244,14.5786C13.874,15.2488 13.3638,15.8033 12.7922,15.8033C12.6221,15.8033 12.4418,15.7523 12.2751,15.6434L8.6215,13.3982C8.4038,13.2655 8.1316,13.2655 7.9139,13.4016L4.3044,15.6468C4.1378,15.7591 3.9575,15.8067 3.784,15.8067C3.1988,15.8067 2.6715,15.2522 2.8552,14.582L3.8656,10.4521C3.9268,10.2004 3.8384,9.9384 3.6411,9.7751L0.3446,7.0502C-0.3324,6.4719 0.0555,5.3594 0.9229,5.3118L5.1923,5.0022C5.4475,4.9852 5.6686,4.8219 5.7639,4.5872L7.3968,0.6206C7.5669,0.2089 7.9411,0.0048 8.3153,0.0048C8.6895,0.0048 9.0637,0.2089 9.2338,0.6206L10.8633,4.5838C10.9586,4.8185 11.1831,4.9784 11.4349,4.9988L15.7043,5.3084C16.5752,5.356 16.9596,6.4651 16.2826,7.0434Z" />
    </g>

    <g fill="#F7B510">
        <path
            d="M8.2379,13.2999C8.1255,13.3053 8.0139,13.3391 7.9139,13.4016L4.3044,15.6468C4.1378,15.7591 3.9575,15.8067 3.784,15.8067C3.1988,15.8067 2.6715,15.2522 2.8552,14.582L3.8656,10.4521C3.9268,10.2004 3.8384,9.9384 3.6411,9.7751L0.3446,7.0502C-0.3324,6.4719 0.0555,5.3594 0.9229,5.3118L5.1923,5.0022C5.4475,4.9852 5.6686,4.8219 5.7639,4.5872L7.3968,0.6206C7.5669,0.2089 7.9411,0.0048 8.3153,0.0048C8.6895,0.0048 8.3702,13.2935 8.2379,13.2999Z" />
    </g>
</svg>