<svg xmlns="http://www.w3.org/2000/svg" width="30" height="30" viewBox="0 0 30 30">
    <g fill="#000" opacity="0.54">
        <path
            d="M15.07 5.62c.93 0 1.853.14 2.74.417V1.682C17.81.753 17.054 0 16.123 0H1.687C.755 0 0 .753 0 1.682V23.46c0 .93.755 1.683 1.687 1.683h14.436c.931 0 1.687-.753 1.687-1.683-3.434 1.074-7.179.038-9.568-2.646-2.39-2.683-2.979-6.516-1.505-9.79 1.474-3.275 4.736-5.382 8.334-5.384v-.02zM2.645 11.15c-.591-.003-1.068-.484-1.065-1.074.002-.59.483-1.067 1.074-1.066.592.002 1.07.48 1.07 1.07 0 .285-.113.559-.316.76-.202.2-.477.312-.763.31z"
            transform="translate(4 2)" />
        <path
            d="M14.66 7.333c-4.05.004-7.33 3.054-7.327 6.814.003 3.76 3.287 6.807 7.336 6.805 4.05 0 7.331-3.05 7.331-6.81-.008-3.76-3.29-6.805-7.34-6.809zm4.658 7.554c-.207 1.129-.892 2.134-1.903 2.79-1.01.656-2.261.909-3.474.702-1.217-.193-2.3-.834-3-1.778-.086-.11-.165-.226-.235-.347l-.905.167 1.085-2.92 2.184 2.33-.809.128c.478.567 1.165.949 1.929 1.072 1.262.199 2.53-.323 3.219-1.326.689-1.002.664-2.29-.062-3.27-.727-.979-2.014-1.459-3.268-1.219l-.304-1.283c1.507-.294 3.073.125 4.181 1.12 1.108.993 1.613 2.432 1.348 3.84l.014-.006z"
            transform="translate(4 2)" />
    </g>
</svg>
