<svg width="24" height="24" version="1.1" xmlns="http://www.w3.org/2000/svg" viewBox="0 0 18 20">
    <path fill="#75767c"
        d="M4,14h7v2L4,16v-2zM4,10h10v2L4,12v-2zM4,6h10v2L4,8L4,6zM16,2h-4.18C11.4,0.84 10.3,0 9,0S6.6,0.84 6.18,2L2,2a1.75,1.75 0,0 0,-0.4 0.04c-0.4,0.08 -0.74,0.28 -1,0.55 -0.18,0.18 -0.33,0.4 -0.43,0.64 -0.1,0.23 -0.16,0.5 -0.16,0.77v14a2.05,2.05 0,0 0,0.16 0.78,2.12 2.12,0 0,0 0.43,0.64c0.27,0.27 0.62,0.47 1,0.55 0.13,0.02 0.26,0.03 0.4,0.03h14c1.1,0 2,-0.9 2,-2L18,4c0,-1.1 -0.9,-2 -2,-2zM9,1.75c0.4,0 0.75,0.34 0.75,0.75s-0.34,0.75 -0.75,0.75 -0.75,-0.34 -0.75,-0.75 0.34,-0.75 0.75,-0.75zM16,18L2,18L2,4h14v14z" />
</svg>