<svg xmlns="http://www.w3.org/2000/svg" width="28" height="28" viewBox="0 0 28 28">
    <g fill="#E41111" stroke="#FFF" stroke-width="4px">
        <path d="M14,14m-12,0a12,12 0,1 1,24 0a12,12 0,1 1,-24 0"/>
    </g>

    <g fill="#FFF">
        <path
            d="M7.65,14.192a0.54,0.54 0,0 1,-0.15 -0.35c0,-0.1 0.05,-0.25 0.15,-0.35l0.7,-0.7c0.2,-0.2 0.5,-0.2 0.7,0l0.05,0.05 2.75,2.95c0.1,0.1 0.25,0.1 0.35,0l6.7,-6.95h0.05c0.2,-0.2 0.5,-0.2 0.7,0l0.7,0.7c0.2,0.2 0.2,0.5 0,0.7l-8,8.3c-0.1,0.1 -0.2,0.15 -0.35,0.15 -0.15,0 -0.25,-0.05 -0.35,-0.15l-3.9,-4.2 -0.1,-0.15z"/>
    </g>
</svg>
