<svg xmlns="http://www.w3.org/2000/svg" width="24" height="21" viewBox="0 0 24 21" fill="#fa6400">
    <path
        d="M3.5,20.667c-0.5,0 -1,-0.1 -1.5,-0.4 -1.4,-0.8 -1.9,-2.7 -1.1,-4.1l8.5,-14.2a2.41,2.41 0,0 1,1 -1c0.7,-0.4 1.5,-0.5 2.3,-0.3s1.4,0.7 1.9,1.4l8.4,14.1c0.3,0.5 0.4,1 0.4,1.5 0,0.8 -0.3,1.6 -0.9,2.1 -0.5,0.6 -1.2,0.9 -2,0.9h-17zM11.1,3.067l-8.4,14.1c-0.3,0.5 -0.1,1.1 0.4,1.4 0.1,0.1 0.3,0.1 0.4,0.1h16.9c0.3,0 0.5,-0.1 0.7,-0.3s0.3,-0.4 0.3,-0.7c0,-0.2 0,-0.3 -0.1,-0.5l-8.4,-14.1c-0.3,-0.5 -0.9,-0.6 -1.4,-0.4a0.78,0.78 0,0 0,-0.4 0.4zM13,11.667v-4a0.94,0.94 0,0 0,-1 -1,0.94 0.94,0 0,0 -1,1v4a0.94,0.94 0,0 0,1 1,0.94 0.94,0 0,0 1,-1zM12.7,16.367c0.2,-0.2 0.3,-0.4 0.3,-0.7 0,-0.1 0,-0.3 -0.1,-0.4 0,-0.1 -0.1,-0.2 -0.2,-0.3 0,0 -0.1,-0.1 -0.2,-0.1s-0.1,-0.1 -0.2,-0.1 -0.1,0 -0.2,-0.1c-0.2,0 -0.4,0 -0.6,0.1 -0.1,0 -0.2,0.1 -0.3,0.2s-0.2,0.2 -0.2,0.3 -0.1,0.2 -0.1,0.4c0,0.3 0.1,0.5 0.3,0.7s0.4,0.3 0.7,0.3c0.4,0 0.6,-0.1 0.8,-0.3z" />
</svg>