<svg width="24" height="24" version="1.1" xmlns="http://www.w3.org/2000/svg" viewBox="0 0 20 20">
    <path fill="#75767c"
        d="M10,0C4.48,0 0,4.48 0,10s4.48,10 10,10 10,-4.48 10,-10S15.52,0 10,0zM5.07,16.28c0.43,-0.9 3.05,-1.78 4.93,-1.78s4.5,0.88 4.93,1.78C13.57,17.36 11.86,18 10,18s-3.57,-0.64 -4.93,-1.72zM16.37,14.83c-1.43,-1.74 -4.9,-2.33 -6.36,-2.33s-4.93,0.6 -6.36,2.33A7.95,7.95 0,0 1,2 10c0,-4.4 3.6,-8 8,-8s8,3.6 8,8a7.95,7.95 0,0 1,-1.64 4.83zM10,4a3.49,3.49 0,0 0,-3.5 3.5A3.49,3.49 0,0 0,10 11a3.49,3.49 0,0 0,3.5 -3.5A3.49,3.49 0,0 0,10 4zM10,9a1.5,1.5 0,1 1,0 -3,1.5 1.5,0 1,1 0,3z" />
</svg>