<svg width="64" height="24" version="1.1" viewBox="0 0 64 24" xmlns="http://www.w3.org/2000/svg">
    <g transform="translate(76.285 -219.3)">
        <g id="tag-gold" transform="translate(-87.37 240.38)" fill="none">
            <g id="tag-silver" transform="translate(.125 .75)" fill="none">
                <g id="tag-platinum" transform="translate(24.575,-13.55)" fill="none">
                    <g transform="translate(-13.615 -8.2877)" fill-rule="evenodd">
                        <path
                            d="m12 0h40c6.648 0 12 5.352 12 12s-5.352 12-12 12h-40c-6.648 0-12-5.352-12-12s5.352-12 12-12z"
                            fill="#ede7f6" />
                        <path transform="translate(12,4)"
                            d="m5.2124 4.528-4.4521 0.65112-0.10109 0.020461c-0.65353 0.17052-0.89307 1.0064-0.39056 1.4958l3.2202 3.1366-0.75965 4.432-0.011581 0.097888c-0.0439 0.67679 0.67894 1.1665 1.3014 0.8391l3.98-2.0934 3.9818 2.0934 0.08951 0.04128c0.63007 0.25097 1.3192-0.28509 1.2003-0.97827l-0.76054-4.432 3.2211-3.1366 0.069853-0.075889c0.42913-0.52156 0.13261-1.339-0.5615-1.4404l-4.453-0.65112-1.9896-4.0326c-0.32608-0.66059-1.2681-0.66059-1.5941 0zm2.7876-1.632 1.4003 2.8379 0.054006 0.094401c0.13846 0.21094 0.36146 0.35471 0.61451 0.3917l3.1321 0.45735-2.2655 2.2077-0.07322 0.080618c-0.1581 0.19709-0.22596 0.45399-0.18267 0.70641l0.53387 3.1164-2.7996-1.4721-0.099295-0.04469c-0.23629-0.089392-0.50154-0.074494-0.72818 0.044689l-2.8005 1.4721 0.53476-3.1164 0.011809-0.10826c0.011961-0.25238-0.084242-0.50007-0.2677-0.67876l-2.2664-2.2077 3.133-0.45735c0.2892-0.042271 0.53915-0.22401 0.66851-0.4861z"
                            fill="#673ab7" />
                        <g fill="#673ab7">
                            <path
                                d="m41.023 7.2754-3.1816 8.7246h-2.5195l-3.1816-8.7246h2.3613l2.1094 6.1289 2.1094-6.1289z" />
                            <path
                                d="m46.994 16h-5.1094v-1.5469h1.4297v-5.6309h-1.4297v-1.5469h5.1094v1.5469h-1.4297v5.6309h1.4297z" />
                            <path
                                d="m56.041 10.029q0 0.58594-0.20508 1.1484-0.20508 0.55664-0.58594 0.9375-0.52148 0.51562-1.166 0.7793-0.63867 0.26367-1.5938 0.26367h-1.4004v2.8418h-2.25v-8.7246h3.7031q0.83203 0 1.4004 0.14648 0.57422 0.14062 1.0137 0.42773 0.52734 0.3457 0.80274 0.88477 0.28125 0.53906 0.28125 1.2949zm-2.3262 0.05273q0-0.36914-0.19922-0.63281-0.19922-0.26953-0.46289-0.375-0.35156-0.14062-0.68555-0.15234-0.33398-0.017578-0.89062-0.017578h-0.38672v2.6133h0.64453q0.57422 0 0.94336-0.07031 0.375-0.07031 0.62695-0.28125 0.2168-0.1875 0.31055-0.44531 0.09961-0.26367 0.09961-0.63867z" />
                        </g>
                    </g>
                </g>
            </g>
        </g>
    </g>
</svg>
