<svg xmlns="http://www.w3.org/2000/svg" width="18" height="24" viewBox="0 0 18 24">
    <g fill="#FDDC2C">
        <path
            d="M16.302 2.91H13.8v2.262H4.2V2.91H1.698c-.732 0-1.326.594-1.326 1.326V22.29a1.32 1.32 0 0 0 1.326 1.32h14.604a1.32 1.32 0 0 0 1.326-1.32V4.236c0-.732-.594-1.326-1.326-1.326zm-2.004 15.27H3.702v-1.032h10.596v1.032zm0-2.928H3.702v-1.038h10.596v1.038zm0-2.94H3.702v-1.038h10.596v1.038zm0-2.934H3.702V8.34h10.596v1.038z" />
        <path d="M13.05 1.506V4.32h-8.1V1.506h2.496a1.608 1.608 0 0 1 3.066 0h2.538z" />
    </g>
</svg>
